<svg
  xmlns="http://www.w3.org/2000/svg"
  width="1280"
  height="760"
  viewBox="0 0 1280 760"
>
  <defs>
    <linearGradient id="bg" x1="0" x2="1" y1="0" y2="1">
      <stop offset="0%" stop-color="#020617"/>
      <stop offset="100%" stop-color="#0B1220"/>
    </linearGradient>
    <linearGradient id="accent" x1="0" x2="1" y1="0" y2="0">
      <stop offset="0%" stop-color="#2563EB"/>
      <stop offset="100%" stop-color="#7C3AED"/>
    </linearGradient>
  </defs>
  <rect width="1280" height="760" fill="url(#bg)"/>
  <circle cx="190" cy="124" r="220" fill="#1D4ED8" opacity="0.2"/>
  <circle cx="1120" cy="636" r="280" fill="#14B8A6" opacity="0.15"/>
  <rect x="36" y="36" width="1208" height="688" rx="20" fill="#0B1220" stroke="#1E293B"/>
  <rect x="36" y="36" width="1208" height="104" rx="20" fill="#0F172A"/>
  <rect x="36" y="124" width="1208" height="4" fill="url(#accent)"/>
  <text
    x="74"
    y="90"
    font-size="38"
    font-weight="700"
    font-family="Helvetica, Arial, sans-serif"
    fill="#F8FAFC"
  >AH Premium Lab - Pair Detail</text>
  <text
    x="74"
    y="120"
    font-size="20"
    font-family="Helvetica, Arial, sans-serif"
    fill="#94A3B8"
  >Time series + diagnostics + sensitivity</text>

  <rect x="64" y="164" width="420" height="520" rx="14" fill="#111827" stroke="#1E293B"/>
  <text x="86" y="202" font-size="27" font-weight="700" fill="#E2E8F0">Key Panels</text>
  <text x="86" y="228" font-size="21" fill="#CBD5E1">- premium / log_spread / zscore</text><text x="86" y="268" font-size="21" fill="#CBD5E1">- rolling cointegration</text><text x="86" y="308" font-size="21" fill="#CBD5E1">- structural breaks</text><text x="86" y="348" font-size="21" fill="#CBD5E1">- cost sensitivity cache</text>

  <rect x="520" y="164" width="690" height="240" rx="14" fill="#0F172A" stroke="#334155"/>
  <rect x="544" y="186" width="130" height="34" rx="17" fill="#1E293B"/>
  <text x="562" y="209" font-size="16" fill="#E2E8F0">Premium%</text>
  <rect x="684" y="186" width="124" height="34" rx="17" fill="#1E293B"/>
  <text x="704" y="209" font-size="16" fill="#E2E8F0">Z-score</text>
  <rect x="818" y="186" width="128" height="34" rx="17" fill="#1E293B"/>
  <text x="836" y="209" font-size="16" fill="#E2E8F0">Half-life</text>
  <text x="546" y="254" font-size="24" font-weight="700" fill="#E2E8F0">Time Series Zone</text>
  <polyline
    points="550,352 625,296 700,318 775,262 850,300 925,230 1000,264 1075,226 1150,246"
    fill="none"
    stroke="url(#accent)"
    stroke-width="6"
  />

  <rect x="520" y="426" width="332" height="258" rx="14" fill="#0F172A" stroke="#334155"/>
  <text x="546" y="466" font-size="24" font-weight="700" fill="#E2E8F0">Diagnostics</text>
  <text x="546" y="510" font-size="20" fill="#94A3B8">ADF / EG / Half-life</text>
  <text x="546" y="542" font-size="20" fill="#94A3B8">Breakpoints / CUSUM</text>
  <text x="546" y="574" font-size="20" fill="#94A3B8">Executability metrics</text>

  <rect x="878" y="426" width="332" height="258" rx="14" fill="#0F172A" stroke="#334155"/>
  <text x="904" y="466" font-size="24" font-weight="700" fill="#E2E8F0">Sensitivity</text>
  <text x="904" y="510" font-size="20" fill="#94A3B8">Cost heatmap</text>
  <text x="904" y="542" font-size="20" fill="#94A3B8">Tolerance radar</text>
  <text x="904" y="574" font-size="20" fill="#94A3B8">Breakeven stats</text>
</svg>
