<svg
  xmlns="http://www.w3.org/2000/svg"
  width="1280"
  height="760"
  viewBox="0 0 1280 760"
>
  <defs>
    <linearGradient id="bg" x1="0" x2="1" y1="0" y2="1">
      <stop offset="0%" stop-color="#f8fafc"/>
      <stop offset="100%" stop-color="#e2e8f0"/>
    </linearGradient>
  </defs>
  <rect width="1280" height="760" fill="url(#bg)"/>
  <rect x="36" y="36" width="1208" height="688" rx="18" fill="#ffffff" stroke="#cbd5e1"/>
  <rect x="36" y="36" width="1208" height="92" rx="18" fill="#0f172a"/>
  <text
    x="74"
    y="92"
    font-size="34"
    font-family="Arial, sans-serif"
    fill="#f8fafc"
  >AH Premium Lab - Pair Detail</text>
  <text
    x="74"
    y="126"
    font-size="20"
    font-family="Arial, sans-serif"
    fill="#cbd5e1"
  >Time series + diagnostics + sensitivity</text>

  <rect x="64" y="164" width="420" height="520" rx="12" fill="#f8fafc" stroke="#e2e8f0"/>
  <text x="86" y="202" font-size="26" fill="#0f172a">Key Panels</text>
  <text x="86" y="220" font-size="22" fill="#334155">• premium / log_spread / zscore</text><text x="86" y="258" font-size="22" fill="#334155">• rolling cointegration</text><text x="86" y="296" font-size="22" fill="#334155">• structural breaks</text><text x="86" y="334" font-size="22" fill="#334155">• cost sensitivity cache</text>

  <rect x="520" y="164" width="690" height="240" rx="12" fill="#eef2ff" stroke="#c7d2fe"/>
  <text x="546" y="204" font-size="24" fill="#1e293b">Time Series Zone</text>
  <polyline
    points="550,352 625,296 700,318 775,262 850,300 925,230 1000,264 1075,226 1150,246"
    fill="none"
    stroke="#2563eb"
    stroke-width="5"
  />

  <rect x="520" y="426" width="332" height="258" rx="12" fill="#ecfeff" stroke="#bae6fd"/>
  <text x="546" y="466" font-size="24" fill="#0f172a">Diagnostics</text>
  <text x="546" y="510" font-size="20" fill="#334155">ADF / EG / Half-life</text>
  <text x="546" y="542" font-size="20" fill="#334155">Breakpoints / CUSUM</text>
  <text x="546" y="574" font-size="20" fill="#334155">Executability metrics</text>

  <rect x="878" y="426" width="332" height="258" rx="12" fill="#fef9c3" stroke="#fde68a"/>
  <text x="904" y="466" font-size="24" fill="#0f172a">Sensitivity</text>
  <text x="904" y="510" font-size="20" fill="#334155">Cost heatmap</text>
  <text x="904" y="542" font-size="20" fill="#334155">Tolerance radar</text>
  <text x="904" y="574" font-size="20" fill="#334155">Breakeven stats</text>
</svg>
